<svg xmlns="http://www.w3.org/2000/svg" viewBox="0 0 26.9 34.2"><defs><style>.cls-1{fill:#6c63ff}</style></defs><g id="overflowing-stacked-papers-tray"><g id="Group_18" data-name="Group 18"><path id="Path_292" d="M126.5 426.2h11.8a1 1 0 0 0 1-1V424a1 1 0 0 0-1-1h-11.8a1 1 0 0 0-1 1v1.3a1 1 0 0 0 1 1z" class="cls-1" data-name="Path 292" transform="translate(-121.3 -396.5)"/><path id="Path_293" d="M58.5 330.5c0 1.8 0 1.8.2 1.8H80c1.1 0 1.1 0 1.1-.2V319a1 1 0 0 0-1-1h-.7a1 1 0 0 0-1 1V329a.6.6 0 0 1-.5.6h-16a.6.6 0 0 1-.6-.6V319a1 1 0 0 0-1-1h-.7a1 1 0 0 0-1 1v11.5z" class="cls-1" data-name="Path 293" transform="translate(-58.5 -298.1)"/><path id="Path_294" d="M129.3 349l11.8 1h.1a1 1 0 0 0 1-.8v-1.3a1 1 0 0 0-.8-1l-11.8-1.1a1 1 0 0 0-1 .8l-.2 1.3a1 1 0 0 0 .9 1z" class="cls-1" data-name="Path 294" transform="translate(-124 -324.2)"/><path id="Path_295" d="M407 13a1 1 0 0 0 .9.8 1 1 0 0 0 .2 0l1.3-.2a1 1 0 0 0 .8-1.1l-2-11.7A1 1 0 0 0 407 0l-1.3.2a1 1 0 0 0-.8 1.1z" class="cls-1" data-name="Path 295" transform="translate(-383.3)"/><path id="Path_296" d="M183.3 150.6l10.2 6a1 1 0 0 0 1.3-.3l.7-1.1a1 1 0 0 0-.3-1.4l-10.3-6a1 1 0 0 0-1.3.3l-.7 1.2a1 1 0 0 0 .4 1.3z" class="cls-1" data-name="Path 296" transform="translate(-175 -138.5)"/><path id="Path_297" d="M284.5 59.6a1 1 0 0 0 1.4.3l1-.8a1 1 0 0 0 .3-1.3l-6.7-9.8a1 1 0 0 0-1.3-.3l-1.1.8a1 1 0 0 0-.3 1.3z" class="cls-1" data-name="Path 297" transform="translate(-264 -44.6)"/><path id="Path_298" d="M143.8 254.8l11.5 3a1 1 0 0 0 1.2-.6l.3-1.3a1 1 0 0 0-.7-1.2l-11.4-3a1 1 0 0 0-1.2.6l-.3 1.3a1 1 0 0 0 .6 1.2z" class="cls-1" data-name="Path 298" transform="translate(-137.8 -236)"/></g></g></svg>