<svg xmlns="http://www.w3.org/2000/svg" xmlns:xlink="http://www.w3.org/1999/xlink" viewBox="0 0 790.051 575.88">
  <defs>
    <style>
      .cls-1, .cls-20 {
        fill: #6c63ff;
      }

      .cls-2 {
        fill: #444053;
      }

      .cls-3, .cls-4 {
        fill: none;
        stroke: #444053;
        stroke-miterlimit: 10;
      }

      .cls-4 {
        stroke-width: 0.75px;
      }

      .cls-5 {
        fill: #e8eaf2;
      }

      .cls-6 {
        fill: #65617d;
      }

      .cls-7 {
        fill: #fa5959;
      }

      .cls-7, .cls-8, .cls-9 {
        opacity: 0.8;
      }

      .cls-8 {
        fill: #fed253;
      }

      .cls-9 {
        fill: #8ccf4d;
      }

      .cls-10 {
        fill: url(#linear-gradient);
      }

      .cls-11 {
        opacity: 0.05;
      }

      .cls-12 {
        fill: #3f3d56;
      }

      .cls-13, .cls-18 {
        opacity: 0.1;
      }

      .cls-14 {
        fill: #ee8e9e;
      }

      .cls-15 {
        fill: #e3e8f4;
      }

      .cls-16 {
        fill: #e6e8ec;
      }

      .cls-17 {
        fill: #565387;
      }

      .cls-19 {
        fill: #fff;
      }

      .cls-20 {
        opacity: 0.2;
      }

      .cls-21 {
        fill: #dfe3ef;
      }
    </style>
    <linearGradient id="linear-gradient" x1="0.5" y1="1" x2="0.5" gradientUnits="objectBoundingBox">
      <stop offset="0" stop-color="gray" stop-opacity="0.251"/>
      <stop offset="0.54" stop-color="gray" stop-opacity="0.122"/>
      <stop offset="1" stop-color="gray" stop-opacity="0.102"/>
    </linearGradient>
  </defs>
  <g id="undraw_revenue_3osh_1_" data-name="undraw_revenue_3osh (1)" transform="translate(0.03 0.01)">
    <path id="Path_30" data-name="Path 30" class="cls-1" d="M1065.833,227.309s-11.031-4.483-46.123,11.589-39.474,14.051-48.564,11.589-14.145-3.049-23.9-16.492c0,0-6.866-37.229-13.515-43s-34.9,3.288-34.9,3.288-33.861,7.772-40.314-37.468c0,0,4.578-34.121-1.659-44.587,0,0,12.588,5.425,33.361-3.339s37.41,9.416,37.41,9.416,5.237,13.566,4.686,21.649,2.774,11.125,12.682,7.243c0,0,4.867-6.924-2.028-18.368s-11.813-19.969-9.887-28.863,7.453-21.207,25.227-27.371,41.915-7.352,53.5-12.175,14.392-7.967,14.392-7.967-7.127,7.142,9.669,37.431,6.091,43.458,6.091,43.458-8.938,21.294-48.39,19.556c0,0-38.018,1.391-17.289,17.513,0,0,13.269-2.7,33.115-9.01s34.172,19.723,37.728,37.837S1065.833,227.309,1065.833,227.309Z" transform="translate(-275.811 -52.46)"/>
    <path id="Path_31" data-name="Path 31" class="cls-2" d="M1063.427,84.151l.2-.051c1.528,5.794-15.464,28.972-29.986,47.463l-.174-.13C1053.96,105.387,1064.6,88.6,1063.427,84.151Z" transform="translate(-324.504 -61.186)"/>
    <path id="Path_32" data-name="Path 32" class="cls-2" d="M1018.131,148.92l.087.239c-11.589,14.747-26.2,32.347-37.873,45.384-1.108,1.246-2.216,2.55-3.281,3.882l-.333-.268c1.072-1.34,2.173-2.651,3.3-3.9C991.7,181.231,1006.535,163.667,1018.131,148.92Z" transform="translate(-308.86 -79.057)"/>
    <path id="Path_33" data-name="Path 33" class="cls-2" d="M966.858,216.41l.232.4c-21.251,26.531-22.656,67.729-22.707,68.084L939.9,279.72C939.972,279.358,945.455,243.129,966.858,216.41Z" transform="translate(-298.706 -97.665)"/>
    <path id="Path_34" data-name="Path 34" class="cls-3" d="M1048.384,240.9s-25.06-13.037-44.587-8.351-63.5-16.521-63.5-16.521-18.665-7.583-22.453-16.231c0,0-12.813-13.537-13.544-20.555s-13.2-24.626-21.331-25.3" transform="translate(-283.01 -80.442)"/>
    <path id="Path_35" data-name="Path 35" class="cls-3" d="M1102.049,284.311s-12.617-8.5-11.154-18.411" transform="translate(-340.304 -111.31)"/>
    <path id="Path_36" data-name="Path 36" class="cls-3" d="M1072.05,294.206s-18.042-6.555-19.86-32.245" transform="translate(-329.665 -110.223)"/>
    <path id="Path_37" data-name="Path 37" class="cls-3" d="M1034.571,300.695s-17.245-14.312-11.523-39.315" transform="translate(-321.31 -110.063)"/>
    <path id="Path_38" data-name="Path 38" class="cls-3" d="M988.994,290.866s-11.495-24.083-1.268-39.756" transform="translate(-310.724 -107.232)"/>
    <path id="Path_39" data-name="Path 39" class="cls-3" d="M1107.7,252.08s-13.037,4.143-10.249,11.009" transform="translate(-342.036 -107.499)"/>
    <path id="Path_40" data-name="Path 40" class="cls-3" d="M1083.2,219.37s-17.463,5.541-17.876,30.246" transform="translate(-333.285 -98.481)"/>
    <path id="Path_41" data-name="Path 41" class="cls-3" d="M1050.749,211.5s-15.891,19.621-14.732,37.453" transform="translate(-325.19 -96.311)"/>
    <path id="Path_42" data-name="Path 42" class="cls-3" d="M1012.693,222.12s-15.79,15.094-13.762,23.489" transform="translate(-314.932 -99.239)"/>
    <path id="Path_43" data-name="Path 43" class="cls-3" d="M998.376,213.933s-14.8,2.658-16.876-2.173" transform="translate(-310.176 -96.383)"/>
    <path id="Path_44" data-name="Path 44" class="cls-3" d="M978.24,190.08s7.482,9.908,9.416,7.692" transform="translate(-309.277 -90.406)"/>
    <path id="Path_45" data-name="Path 45" class="cls-3" d="M1063.2,178.179s-37.323,2.709-45.768-8.539" transform="translate(-320.082 -84.77)"/>
    <path id="Path_46" data-name="Path 46" class="cls-3" d="M967.4,121.16s17.513,37.591,30.225,42.378" transform="translate(-306.288 -71.404)"/>
    <path id="Path_47" data-name="Path 47" class="cls-3" d="M992.76,96.44s10.756,34.578,24.083,45.37" transform="translate(-313.28 -64.588)"/>
    <path id="Path_48" data-name="Path 48" class="cls-4" d="M1085.01,141.948s-28.378,12.183-45.42-.138" transform="translate(-326.191 -77.097)"/>
    <path id="Path_49" data-name="Path 49" class="cls-4" d="M1027.67,86.26s6.482,25.423,15.21,31.557" transform="translate(-322.905 -61.782)"/>
    <path id="Path_50" data-name="Path 50" class="cls-4" d="M1088.05,102.73s-15.934,6.033-21.91,1.449" transform="translate(-333.512 -66.323)"/>
    <path id="Path_51" data-name="Path 51" class="cls-3" d="M957.081,201.55s-.043,22.156-6.041,23.728" transform="translate(-301.778 -93.568)"/>
    <path id="Path_52" data-name="Path 52" class="cls-3" d="M891.3,237.27s23.952,2.042,35-10.27" transform="translate(-285.307 -100.585)"/>
    <path id="Path_53" data-name="Path 53" class="cls-3" d="M942.547,165.41s-5.794,22.453-21.787,28.523" transform="translate(-293.429 -83.604)"/>
    <path id="Path_54" data-name="Path 54" class="cls-3" d="M871.46,205.029s16.956,5.9,31.536-9.119" transform="translate(-279.837 -92.013)"/>
    <path id="Path_55" data-name="Path 55" class="cls-3" d="M920.252,138.74s-1.6,19.085-11.973,28.016" transform="translate(-289.988 -76.251)"/>
    <path id="Path_56" data-name="Path 56" class="cls-3" d="M872.35,166.641s14.073.094,17.383-4.491" transform="translate(-280.082 -82.705)"/>
    <path id="Path_57" data-name="Path 57" class="cls-1" d="M242.53,793.753s9.64-6.359,19.194-1.833c0,0-2.941,5.664-15.036,5.128Z" transform="translate(-106.436 -255.889)"/>
    <path id="Path_58" data-name="Path 58" class="cls-1" d="M240.68,795.54s-2.933,11.2,4.418,18.766c0,0,4.425-4.606.036-15.884Z" transform="translate(-105.767 -257.335)"/>
    <path id="Path_59" data-name="Path 59" class="cls-1" d="M224.3,778.078s.724-9.5,22.163-6.352c0,0,.1,6.128-7.431,9.032S228.059,781.214,224.3,778.078Z" transform="translate(-101.41 -250.593)"/>
    <path id="Path_60" data-name="Path 60" class="cls-1" d="M220.828,780.65s-9.068,2.9-.985,23.025c0,0,5.983-1.333,7.04-9.336S224.761,783.562,220.828,780.65Z" transform="translate(-99.257 -253.23)"/>
    <path id="Path_61" data-name="Path 61" class="cls-1" d="M205.705,756.618s-1.224-15.63,20.693-14.022c0,0,1.557,14.146-16.818,17.781Z" transform="translate(-96.28 -242.706)"/>
    <path id="Path_62" data-name="Path 62" class="cls-1" d="M185.72,732.575s3-17.709,24.908-12.429c0,0,.087,15.312-21.338,16.659Z" transform="translate(-90.773 -236.277)"/>
    <path id="Path_63" data-name="Path 63" class="cls-1" d="M171.1,707.526s5.07-17.3,26.741-12.089c0,0-5.164,15.514-25.3,15.275Z" transform="translate(-86.743 -229.467)"/>
    <path id="Path_64" data-name="Path 64" class="cls-1" d="M157.22,682.747s4.918-17.9,25.872-12.53c0,0-7,17.014-24.5,15.58Z" transform="translate(-82.916 -222.505)"/>
    <path id="Path_65" data-name="Path 65" class="cls-1" d="M148.27,657.773s3.781-21.9,23.322-17.05c0,0-5.678,19.918-21.881,20.237Z" transform="translate(-80.448 -214.458)"/>
    <path id="Path_66" data-name="Path 66" class="cls-1" d="M139.88,629.9s4.541-22.069,24.293-15.652c0,0-7.757,20.86-22.917,18.7Z" transform="translate(-78.135 -207.028)"/>
    <path id="Path_67" data-name="Path 67" class="cls-1" d="M134.69,601.821s7.2-22.076,22.489-21.475c0,0-7.366,23.315-21.215,25.9Z" transform="translate(-76.704 -198.001)"/>
    <path id="Path_68" data-name="Path 68" class="cls-1" d="M131.39,575.014s7.837-26.574,20.28-24.517c0,0-5.425,20.28-19.838,28.66Z" transform="translate(-75.794 -189.744)"/>
    <path id="Path_69" data-name="Path 69" class="cls-1" d="M129.51,545.011s7.352-22.142,19.636-23.011c0,0-5,21.787-19.36,28.776Z" transform="translate(-75.276 -181.918)"/>
    <path id="Path_70" data-name="Path 70" class="cls-1" d="M127.46,516.63s9.17-22.171,17.282-22.67c0,0-3.976,21.83-16.47,26.306Z" transform="translate(-74.711 -174.187)"/>
    <path id="Path_71" data-name="Path 71" class="cls-1" d="M126.05,488.784s5.635-24.075,13.762-26.075c0,0-1.108,19.686-12.929,27.871Z" transform="translate(-74.322 -165.572)"/>
    <path id="Path_72" data-name="Path 72" class="cls-1" d="M121.85,455.583s5.925-19.187,12.487-22.113c0,0-1.3,22.62-10.966,26.8Z" transform="translate(-73.164 -157.51)"/>
    <path id="Path_73" data-name="Path 73" class="cls-1" d="M117.885,428.262l-1.2-33.832s12.255,25.539,2.1,39.8Z" transform="translate(-71.741 -146.746)"/>
    <path id="Path_74" data-name="Path 74" class="cls-1" d="M101.089,384.794S92.252,360.089,90.13,358.72c0,0,17.332,16.029,15.637,36.649Z" transform="translate(-64.419 -136.901)"/>
    <path id="Path_75" data-name="Path 75" class="cls-1" d="M199.146,761.871s-15.543-2.035-15.08,19.932c0,0,14.051,2.289,18.636-15.876Z" transform="translate(-90.315 -248.039)"/>
    <path id="Path_76" data-name="Path 76" class="cls-1" d="M178.387,736.87s-17.962-.065-16.5,22.453c0,0,15.073,2.694,20.048-18.18Z" transform="translate(-84.179 -241.159)"/>
    <path id="Path_77" data-name="Path 77" class="cls-1" d="M160.681,713.959s-16.3-7.612-26.741,12.088c0,0,15.065,6.367,28.182-8.9Z" transform="translate(-76.497 -234.444)"/>
    <path id="Path_78" data-name="Path 78" class="cls-1" d="M146.632,687.481s-16.695-8.141-26.5,11.147c0,0,17.383,5.983,27.878-8.1Z" transform="translate(-72.69 -227.072)"/>
    <path id="Path_79" data-name="Path 79" class="cls-1" d="M137.562,662.612s-16.065-15.355-28.892.174c0,0,16.42,12.632,29.631,3.245Z" transform="translate(-69.53 -218.818)"/>
    <path id="Path_80" data-name="Path 80" class="cls-1" d="M130.142,633s-16.166-15.7-28.892.724c0,0,18.151,12.878,29.464,2.571Z" transform="translate(-67.484 -210.656)"/>
    <path id="Path_81" data-name="Path 81" class="cls-1" d="M126.678,603.13s-12.451-19.556-27.118-15.21c0,0,12.921,20.758,26.98,19.831Z" transform="translate(-67.019 -199.919)"/>
    <path id="Path_82" data-name="Path 82" class="cls-1" d="M122.6,576.263s-12.566-24.691-24.423-20.4c0,0,9.046,18.976,24.742,24.554Z" transform="translate(-66.638 -191.116)"/>
    <path id="Path_83" data-name="Path 83" class="cls-1" d="M121.188,545.428s-12.9-19.44-24.988-17.064c0,0,10.546,19.708,26.241,22.685Z" transform="translate(-66.092 -183.617)"/>
    <path id="Path_84" data-name="Path 84" class="cls-1" d="M122.447,516.287s-10-21.808-18.107-22c0,0,4.8,21.656,17.455,25.662Z" transform="translate(-68.336 -174.278)"/>
    <path id="Path_85" data-name="Path 85" class="cls-1" d="M119.2,489.627S108.081,467.543,99.73,467.5c0,0,5.693,18.882,19.092,24.076Z" transform="translate(-67.065 -166.892)"/>
    <path id="Path_86" data-name="Path 86" class="cls-1" d="M118.51,458.093S110.2,439.811,103.3,437.74c0,0,4.157,22.279,14.283,25.2Z" transform="translate(-68.05 -158.687)"/>
    <path id="Path_87" data-name="Path 87" class="cls-1" d="M109.923,429.488,91.33,401.19s4.759,27.914,21.287,33.694Z" transform="translate(-64.749 -148.61)"/>
    <path id="Path_88" data-name="Path 88" class="cls-1" d="M90.853,391.289S69.262,376.383,68.48,374c0,0,11.016,20.881,31.376,24.561Z" transform="translate(-58.45 -141.114)"/>
    <path id="Path_89" data-name="Path 89" class="cls-1" d="M85.735,379.547S60.942,355.718,54.59,355.74c0,0,20.447.934,31.717,22.54Z" transform="translate(-54.62 -136.079)"/>
    <path id="Path_90" data-name="Path 90" class="cls-2" d="M116.374,447.337l-.905.116c-4.657-36.468-11.451-58.016-19.129-60.681l.3-.862C104.785,388.735,111.579,409.978,116.374,447.337Z" transform="translate(-66.131 -144.397)"/>
    <path id="Path_91" data-name="Path 91" class="cls-2" d="M130.379,556.882l-1.362.116c-.29-3.4-.507-6.888-.659-10.357-1.3-30.189-3.317-57.9-5.968-78.68l.789-.971c2.658,20.809,5.244,49.368,6.519,79.585C129.879,550.03,130.075,553.492,130.379,556.882Z" transform="translate(-73.313 -166.752)"/>
    <path id="Path_92" data-name="Path 92" class="cls-2" d="M237.308,755.174c-.239-.109-24.257-10.828-49.194-36.417a198.123,198.123,0,0,1-35.961-50.947c-11.523-23.453-18.549-52.287-20.9-80.31l1.449.666c5.295,62.9,33.926,105.9,56.7,129.286,24.691,25.35,48.441,35.976,48.68,36.077Z" transform="translate(-75.756 -199.977)"/>
    <path id="Path_93" data-name="Path 93" class="cls-5" d="M807.625,175.7V613.778c0,13.037-12.567,23.619-28.088,23.619H185.161c-15.514,0-28.081-10.6-28.081-23.619V175.7c0-13.037,12.566-26.357,28.081-26.357l594.348,1.449C795.023,150.781,807.625,162.645,807.625,175.7Z" transform="translate(-82.877 -79.173)"/>
    <path id="Path_94" data-name="Path 94" class="cls-6" d="M807.625,175.827v20.28H157.08v-20.28a26.487,26.487,0,0,1,26.487-26.487H781.109a26.5,26.5,0,0,1,26.516,26.487Z" transform="translate(-82.877 -79.173)"/>
    <circle id="Ellipse_16" data-name="Ellipse 16" class="cls-7" cx="9.358" cy="9.358" r="9.358" transform="translate(96.359 84.189)"/>
    <circle id="Ellipse_17" data-name="Ellipse 17" class="cls-8" cx="9.358" cy="9.358" r="9.358" transform="translate(123.6 84.189)"/>
    <circle id="Ellipse_18" data-name="Ellipse 18" class="cls-9" cx="9.358" cy="9.358" r="9.358" transform="translate(150.833 84.189)"/>
    <path id="Path_95" data-name="Path 95" class="cls-10" d="M986.377,762.352l-15.811-22.909s-.3-5.671-1.333-7-.217-4.281-.217-4.281,1.108-1.622.145-1.767-.145-3.759-.145-3.759l-.08-5.751s.891-5.526.152-6.852a2.173,2.173,0,0,1,.073-2.354s.884-3.172,0-3.984-.666-5.751-.442-9.655-1.55-6.113-1.55-6.707-5.838-6.338-5.838-6.852-3.694-2.658-5.91-3.245-3.325-1.028-3.252-1.325-3.469-1.448-3.469-1.448-3.107-.217-4.288-1.767-4.795-1.992-4.9-2.006-.051-.21-.072-.311l-.065-.333a16.174,16.174,0,0,0,.768-1.449l.21-.449a6.3,6.3,0,0,0,3.621-1.13,4.977,4.977,0,0,0,1.767-3.535,7.73,7.73,0,0,0-.862-3.926c-.652-1.333-1.6-2.7-1.275-4.143a18.624,18.624,0,0,1,.724-1.775,4.708,4.708,0,0,0-.529-3.491c-.565-1.072-1.34-2.014-1.963-3.049a11.964,11.964,0,0,1-1.564-4.346,6.729,6.729,0,0,0-.572-2.347,4.469,4.469,0,0,0-1.3-1.311,12.93,12.93,0,0,0-7.967-2.4c-2.014.065-4.02.608-6.019.362a21.159,21.159,0,0,1-3.506-.92c-2.477-.724-5.338-1.036-7.5.384s-3.013,4.208-4.476,6.388c-1.3,1.934-3.187,3.549-4.172,5.591v-.116a6.931,6.931,0,0,0-.55,1.492,10.652,10.652,0,0,0,.326,4.882,3.434,3.434,0,0,0,1.2,2.173,7.061,7.061,0,0,0,2.586.507,2.36,2.36,0,0,1-.1.42,16.861,16.861,0,0,0,11.712,19.679v.449a10.108,10.108,0,0,1-.079,1.266h0s-7.424-1.528-9.416-.493-5.91,1.84-6.519,2.434-2.071.145-3.4,3.621-1.449,7-3.172,8.626-2.586,2.723-2.658,3.9.217,1.449-.449,1.84-1.622,1.919-1.325,2.506a2.108,2.108,0,0,1-.811,2.216,2.441,2.441,0,0,0-1.036,2.173s-.442,1.622-1.448,1.992-1.7,2.8-1.7,2.8l-3.346,3.853-6.642-7.344a2.81,2.81,0,0,0-3.955-.2l-3.259,2.9a6.461,6.461,0,0,0-3.259,1.941,8.55,8.55,0,0,0-1.695,2.513l-1.782,1.608a4.534,4.534,0,0,0-.456,5.012l4.252,4.7v.043a7.511,7.511,0,0,0-4.027,1.746c-6.352,5.6-6.432,10.763-5.468,13.117s9.01,11.429,9.01,11.429a36.066,36.066,0,0,0,11.429,9.314h0l-.051.051c-.13.145-.268.3-.4.464l-.109.138a1.755,1.755,0,0,1-.1.145l-.116.174-.094.145-.13.217-.08.138-.152.29a.806.806,0,0,0-.051.094c-.014.036-.123.261-.181.4a1.3,1.3,0,0,0-.058.152c-.043.094-.08.2-.116.29l-.065.2a1.084,1.084,0,0,1-.094.282l-.065.21-.087.326a.667.667,0,0,1-.058.2c-.022.065-.08.348-.116.529a1.843,1.843,0,0,1-.036.21l-.065.384a.7.7,0,0,1-.036.268l-.044.362v1.688c-.152,8.626.355,9.879.355,9.879a4.781,4.781,0,0,0,3.918,2.941,5.128,5.128,0,0,0,1.268-.065c3.839-.666,12.849-2.216,16.029-1.622,1.912.355,5.447-.174,7.967-.645l.666-.13.464,1.449,1.449-.4,1.246.724c.326.2.594.348.782.449,1.449,4.947,7.373,3.259,7.373,3.259l1.405.811,14.254.369a28.922,28.922,0,0,0,5.07,2.419,4.651,4.651,0,0,0,.724.159,33.375,33.375,0,0,0,3.976.073c1.094,0,1.934-.073,1.934-.073s-.145-3.875-.348-8.206a116.172,116.172,0,0,0,13.2-1.079c7.612-1.34,10.792-8.264,11.958-11.965a34.468,34.468,0,0,1,.724,4.592,34.171,34.171,0,0,0,1.181,3.984,13.456,13.456,0,0,0,1.63,2.948c5.613-1.919,2.216-4.795,1.036-6.048s.811-2.281.811-2.281,1.55-1.036,1.405-1.992-.224-1.992,4.8-1.912S986.377,762.352,986.377,762.352Zm-78.014-47.079c.065.427.768,4.961,1.4,6.156a7.866,7.866,0,0,1,.167,2.433c-2.977-.239-6.077-.369-6.077-.369a.724.724,0,0,1,.159.384l-.464-.109-.681-.167,5.483-8.337ZM897.5,732.562l5.157.811.427.073a18.227,18.227,0,0,0-.268,2.433c0,.073.123.167.283.275a6.53,6.53,0,0,0-.094,1.217c.08.406,2.492,1.289,5.251,2.021-.036.152-.072.29-.116.42h0c-2.441-1.282-6.28-1.883-6.721-2.832s-13.523-5.5-13.523-5.5-.478-.254-1.3-.652l3.448.652.942-.094a51.165,51.165,0,0,0,6.519,1.2Z" transform="translate(-276.079 -213.218)"/>
    <path id="Path_96" data-name="Path 96" class="cls-6" d="M976.662,804.5s-2.05,12.378-12.451,14.2-45.1,1.449-45.1,1.449-19.838-2.9-27.016-19.628-11.784-23.424-5.635-23.721,39.315,11.2,41.219,11.35S978.494,762.7,976.662,804.5Z" transform="translate(-283.181 -252.169)"/>
    <path id="Path_97" data-name="Path 97" class="cls-11" d="M976.662,804.5s-2.05,12.378-12.451,14.2-45.1,1.449-45.1,1.449-19.838-2.9-27.016-19.628-11.784-23.424-5.635-23.721,39.315,11.2,41.219,11.35S978.494,762.7,976.662,804.5Z" transform="translate(-283.181 -252.169)"/>
    <path id="Path_98" data-name="Path 98" class="cls-12" d="M883.458,826.925a4.744,4.744,0,0,0,3.882,2.9,5.017,5.017,0,0,0,1.253-.065c3.81-.659,12.74-2.173,15.891-1.608,1.891.348,5.4-.174,7.888-.645,1.659-.311,2.9-.6,2.9-.6s-2.933-9.742-3.3-10.031-13.182-7.967-13.182-7.967l-10.14-.724h0a5.374,5.374,0,0,0-3.44,2.021c-1.072,1.3-1.992,3.426-2.05,6.91C882.959,825.679,883.458,826.925,883.458,826.925Z" transform="translate(-283.05 -260.82)"/>
    <path id="Path_99" data-name="Path 99" class="cls-11" d="M883.455,826.916a4.744,4.744,0,0,0,3.882,2.9,40.814,40.814,0,0,1-2.752-4.02l.051-7.1a12.516,12.516,0,0,1,3.984-10.546h0s-5.345.362-5.49,8.931S883.455,826.916,883.455,826.916Z" transform="translate(-283.047 -260.812)"/>
    <path id="Path_100" data-name="Path 100" class="cls-13" d="M942.1,804.171l9.416-7.4,14.862-14.645s-1.6-.08-4.027-.181c-.6.384-2.289,1.594-2.354,3.057-.073,1.789-4.013.123-6.062,1.152s-12.081,13.863-13.841,13.762-3.151-.891-3.882.355l-.051.08Z" transform="translate(-297.675 -253.588)"/>
    <path id="Path_101" data-name="Path 101" class="cls-13" d="M885.93,810.239l1.029.471c7.171,3.071,16.029,9.517,16.659,10.691.406.724,5.541,3.824,9.5,6.164,1.659-.311,2.9-.6,2.9-.6s-2.933-9.742-3.3-10.031-13.182-7.967-13.182-7.967l-10.14-.724h0A5.374,5.374,0,0,0,885.93,810.239Z" transform="translate(-283.826 -260.837)"/>
    <path id="Path_102" data-name="Path 102" class="cls-6" d="M858.256,776.358c.956,2.339,8.938,11.35,8.938,11.35s5.07,6.584,12.226,9.662,16.036,9.517,16.695,10.691c.42.724,6.142,4.194,10.14,6.562l.905.529,2,1.159,1.057.608,4.889-3.947c2.412-1.956,4.809-3.926,4.845-4.034.073-.217,1.029-2.709.8-2.854-.109-.08-.616-1.086-1.543-2.267a10.277,10.277,0,0,0-3.73-3.078,10.626,10.626,0,0,1-4.831-5.07s-.319-.232-.8-.536a9.7,9.7,0,0,0-3.3-1.449c-1.608-.2-4.607-3.5-4.607-3.5a9.016,9.016,0,0,1-2.861-3c-.768-1.608-12.125-9.416-13.175-10.14l27.523,17.68,6.584,4.23,9.416-7.4,14.87-14.638s-2-.1-4.911-.224c-7.243-.311-20.048-.8-21.671-.435a12.445,12.445,0,0,1-4.027.261,14.144,14.144,0,0,1-6.077-1.115c-2.455-1.282-6.222-1.869-6.664-2.818s-13.4-5.483-13.4-5.483-17.644-9.372-23.945-3.81S857.307,774.011,858.256,776.358Z" transform="translate(-276.071 -247.96)"/>
    <path id="Path_103" data-name="Path 103" class="cls-14" d="M937,699.527l2.267,7.54,2.9,16.985,10.763.724,3.115-5.164,3.107-5.157s1.941-6.866,3.332-13.5c1.231-5.881,2.035-11.589.724-12.2-1.188-.55-1.97-2.528-2.477-4.657-.065-.261-.123-.529-.174-.8a41.121,41.121,0,0,1-.724-5.461s-22.555-1.166-19.4,8.134a14.711,14.711,0,0,1,.847,4.94,11.688,11.688,0,0,1-.073,1.26A10.546,10.546,0,0,1,937,699.527Z" transform="translate(-297.907 -224.872)"/>
    <path id="Path_104" data-name="Path 104" class="cls-15" d="M930.51,703.77l.8,12.813,1.832,10.908,2.05,5.07,1.832,27.646s17.651,2.042,21.946-.036a1.913,1.913,0,0,0,.775-.608c5.157-7.851,3.491-30.5,3.491-30.5l1.977-14.638-1.318-7.605-3.187-.333-2.455-.268s-.551.681-1.347,1.738c-2.173,2.9-6.164,8.5-5.9,10.864.362,3.223-.442,6.519-1.688,7.033s-2.267,1.391-2.492.507a3.992,3.992,0,0,1-.217-2.339c.217-1.246-.949-5.07-.949-5.07s-1.977-4.462-1.833-6.367-.217-4.1-.8-4.614-1.391-1.029-.724-3.368-2.9-6.9-2.9-6.9Z" transform="translate(-296.117 -230.36)"/>
    <path id="Path_105" data-name="Path 105" class="cls-13" d="M962.7,732.631l.724,21.9,4.23,2.339a1.84,1.84,0,0,0,.775-.6c5.186-7.837,3.484-30.514,3.484-30.514l1.977-14.645-1.318-7.6-3.18-.34c1.231-5.874,2.035-11.589.724-12.2-1.188-.55-1.97-2.528-2.477-4.65h0l-2.282,15.485s.188,1.4.254,2.839a7.966,7.966,0,0,1-.181,2.723,9.087,9.087,0,0,0-.145,3.665c-1.325,2.325-1.984,6.634-2.3,10.792C962.532,727.373,962.7,732.631,962.7,732.631Z" transform="translate(-304.984 -227.222)"/>
    <path id="Path_106" data-name="Path 106" class="cls-12" d="M967.847,685.83s3.694.464,4.86,2,4.252,1.76,4.252,1.76,3.513,1.166,3.44,1.448,1.021.724,3.223,1.318,5.852,2.709,5.852,3.223,5.794,6.222,5.794,6.808,1.76,2.781,1.535,6.663-.434,8.786.442,9.59,0,3.955,0,3.955a2.173,2.173,0,0,0-.073,2.339c.724,1.318-.145,6.808-.145,6.808l.072,5.715s-.8,3.621.145,3.73-.145,1.76-.145,1.76-.8,2.9.217,4.244,1.318,6.96,1.318,6.96l15.667,22.772s.225,4.172-4.759,4.1-4.9.949-4.759,1.9-1.391,1.97-1.391,1.97-1.977,1.029-.8,2.274,4.541,4.1-1.029,6a13.467,13.467,0,0,1-1.608-2.9,33.04,33.04,0,0,1-1.173-3.947s-.514-5.57-1.536-6.3-.855-4.266-.855-4.266,1.449-2.854-.587-4.027-31.782-17.644-31.782-17.644l-.724-21.9s-.507-16.181,2.564-21.6a9.226,9.226,0,0,1,.145-3.665c.507-1.318-.072-5.563-.072-5.563Z" transform="translate(-305.149 -227.087)"/>
    <path id="Path_107" data-name="Path 107" class="cls-13" d="M932.919,697.678s-7.359-1.514-9.336-.493-5.859,1.833-6.446,2.419-2.05.145-3.368,3.621-1.449,6.961-3.151,8.568-2.557,2.709-2.629,3.882.217,1.449-.442,1.833-1.615,1.9-1.318,2.484,15.21,13.472,15.21,13.472.724,4.911,1.391,6.149-.724,18.383-2.173,19.556,9.887,1.057,9.887,1.057.514-11.241.956-11.82-.3-12.6-.3-12.6-.072-10.249.876-12.965.847-11.712.847-11.712.84-5.4,1.862-6.664S932.919,697.678,932.919,697.678Z" transform="translate(-289.407 -230.12)"/>
    <path id="Path_108" data-name="Path 108" class="cls-12" d="M932.619,697.337s-7.366-1.521-9.344-.493-5.852,1.833-6.439,2.419-2.05.145-3.368,3.585-1.449,6.953-3.151,8.568-2.564,2.709-2.637,3.875.225,1.449-.434,1.833-1.615,1.9-1.318,2.492,15.246,13.457,15.246,13.457.724,4.9,1.391,6.149-.724,18.375-2.173,19.556,9.843,1.094,9.843,1.094.514-11.241.949-11.828-.29-12.6-.29-12.6-.072-10.249.876-12.958.848-11.712.848-11.712.84-5.4,1.861-6.663S932.619,697.337,932.619,697.337Z" transform="translate(-289.325 -230.026)"/>
    <path id="Path_109" data-name="Path 109" class="cls-13" d="M941.615,685.986a14.708,14.708,0,0,1,.847,4.94,16.789,16.789,0,0,0,19.274-7.612,41.1,41.1,0,0,1-.724-5.461S938.464,676.686,941.615,685.986Z" transform="translate(-299.096 -224.875)"/>
    <path id="Path_110" data-name="Path 110" class="cls-14" d="M926.37,666.737a16.745,16.745,0,1,0,.362-3.484A16.746,16.746,0,0,0,926.37,666.737Z" transform="translate(-294.976 -217.2)"/>
    <path id="Path_111" data-name="Path 111" class="cls-12" d="M905.927,726.7l-3.991,1.246a2.086,2.086,0,0,1-.811,2.173,2.455,2.455,0,0,0-1.021,2.173s-.442,1.615-1.449,1.977-1.688,2.789-1.688,2.789l-3.368,3.875s-1.246,1.028-1.021,1.543-1.318.659-1.318.659l.8,13.037,6.953,1.318,4.346-.442,3.513-1.318,3.071-1.825,1.4-3.622,6.149-9.372Z" transform="translate(-285.296 -238.355)"/>
    <path id="Path_112" data-name="Path 112" class="cls-14" d="M885.768,747.818s-8.931-12.885-15.594-5.932,2.709,18.23,4.9,17.868,12.668-.971,12.668-.971Z" transform="translate(-278.833 -241.975)"/>
    <rect id="Rectangle_17" data-name="Rectangle 17" class="cls-12" width="46.753" height="36.302" rx="1.54" transform="translate(587.406 479.589) rotate(27.04)"/>
    <rect id="Rectangle_18" data-name="Rectangle 18" class="cls-1" width="39.3" height="29.616" transform="translate(589.267 484.217) rotate(27.04)"/>
    <circle id="Ellipse_19" data-name="Ellipse 19" class="cls-16" cx="0.645" cy="0.645" r="0.645" transform="translate(580.578 496.044)"/>
    <circle id="Ellipse_20" data-name="Ellipse 20" class="cls-16" cx="1.065" cy="1.065" r="1.065" transform="translate(618.045 515.035)"/>
    <path id="Path_113" data-name="Path 113" class="cls-14" d="M884.62,752.874c-.072,9.669,19.911,11.712,19.911,11.712l5.07.811,2.289.362.956-9.416s-1.05-.152-2.361-.456c-1.934-.456-4.44-1.231-4.961-2.325C904.675,751.715,884.692,743.212,884.62,752.874Z" transform="translate(-283.465 -244.322)"/>
    <path id="Path_114" data-name="Path 114" class="cls-13" d="M926.87,663.276a1.955,1.955,0,0,1,1.224.55c.572.6.6,1.659,1.333,2.028a1.449,1.449,0,0,0,.876.1c1.948-.275,3.071-2.47,4.94-3.078a5.071,5.071,0,0,1,3.281.282,2.426,2.426,0,0,1,1.079.724c.63.811.188,2.006.478,2.984.406,1.362,2.028,1.9,3.433,2.079s2.991.275,3.926,1.333a3.578,3.578,0,0,1,.724,2.839,2.209,2.209,0,0,0,0,1.043c.391,1.1,2.289.934,2.789.072.362-.63.246-1.159,1.1-1.333a3.665,3.665,0,0,1,1.8.311,13.094,13.094,0,0,0,4.636.724,16.767,16.767,0,1,0-31.579-10.618Z" transform="translate(-295.114 -217.222)"/>
    <path id="Path_115" data-name="Path 115" class="cls-12" d="M946.557,670.268a2.239,2.239,0,0,1,0-1.05,3.571,3.571,0,0,0-.724-2.832c-.934-1.065-2.521-1.166-3.926-1.34s-3.027-.724-3.433-2.079c-.29-.978.152-2.173-.478-2.977a2.311,2.311,0,0,0-1.079-.724,4.946,4.946,0,0,0-3.281-.283c-1.869.6-2.991,2.8-4.94,3.078a1.571,1.571,0,0,1-.876-.1c-.724-.369-.768-1.449-1.333-2.035-.884-.942-2.571-.333-3.665-1.029a3.39,3.39,0,0,1-1.181-2.173,10.627,10.627,0,0,1-.326-4.853c.637-2.723,3.071-4.592,4.628-6.917,1.449-2.173,2.26-4.911,4.44-6.345s4.969-1.108,7.424-.384a21.726,21.726,0,0,0,3.477.913c1.985.246,3.969-.3,5.961-.362a12.82,12.82,0,0,1,7.873,2.39,4.4,4.4,0,0,1,1.282,1.3,6.649,6.649,0,0,1,.572,2.325,11.907,11.907,0,0,0,1.543,4.288c.616,1.028,1.391,1.963,1.948,3.028a4.686,4.686,0,0,1,.521,3.469c-.188.6-.558,1.144-.724,1.76-.326,1.449.616,2.8,1.26,4.114a7.831,7.831,0,0,1,.855,3.9,4.918,4.918,0,0,1-1.76,3.513,6.28,6.28,0,0,1-3.708,1.123,13.126,13.126,0,0,1-4.73-.724,3.736,3.736,0,0,0-1.789-.312c-.855.181-.724.724-1.108,1.333C948.846,671.209,946.948,671.361,946.557,670.268Z" transform="translate(-293.543 -213.792)"/>
    <path id="Path_116" data-name="Path 116" class="cls-13" d="M941.233,804.758l9.416-7.4,14.87-14.638s-2-.1-4.911-.225a3.245,3.245,0,0,0-1.036,2c-.073,1.789-4.013.123-6.062,1.152s-12.081,13.863-13.841,13.762-3.151-.891-3.882.355l-.051.08a2.1,2.1,0,0,1-1.115.666Z" transform="translate(-297.25 -253.74)"/>
    <path id="Path_117" data-name="Path 117" class="cls-6" d="M917.47,802.312l4.73,15.145.724,2.383,2.26-.623,4.983-1.369,22.192-6.091a19.286,19.286,0,0,0,7.967-2.173,24.207,24.207,0,0,1,13.762-3.006c2.9.275,6.193-.992,8.9-5.99,0,0,6.149-18.158-9.372-23.358S957.349,780,957.349,780l-.21.13c-.6.384-2.289,1.593-2.354,3.056-.072,1.789-4.013.123-6.062,1.152S936.642,798.2,934.882,798.1s-3.151-.891-3.882.355l-.051.08c-.543.724-2.173.92-3.252.956h-1.014l-.138.044-1.13.333Z" transform="translate(-292.522 -251.801)"/>
    <path id="Path_118" data-name="Path 118" class="cls-13" d="M919.16,768.27l2.289.362.956-9.416s-1.05-.152-2.361-.456C920.391,760.049,919.609,765.141,919.16,768.27Z" transform="translate(-292.988 -247.195)"/>
    <path id="Path_119" data-name="Path 119" class="cls-13" d="M979.169,710.912s6.808-1.977,5.121,17.383a53.938,53.938,0,0,1-14.276,31.557s-14.486,6.367-21,5.345-11.277-1.246-11.277-1.246a16.528,16.528,0,0,0-6.591-1.76c-3.621-.145-11.35-2.412-11.495-3.151s1.9-11.494,1.021-12.313c0,0,10.256.42,11.277,1.166s2.492.21,3.621,0,4.462-3.143,11.125-.579c0,0,2.274.217,3.151-.362a3.151,3.151,0,0,1,2.289-.152,6.379,6.379,0,0,0,1.594-.8c.217-.29,1.977,0,1.977,0a.775.775,0,0,0,1.094-.514,4.835,4.835,0,0,1,1.028-1.608s1.978-11.132,5.708-15.3a2.368,2.368,0,0,0,.8-2.122C964.01,725.231,970.377,708.536,979.169,710.912Z" transform="translate(-293.12 -233.939)"/>
    <path id="Path_120" data-name="Path 120" class="cls-12" d="M978.919,708.824s6.808-1.977,5.121,17.383a53.938,53.938,0,0,1-14.276,31.557s-14.486,6.366-21,5.345-11.277-1.246-11.277-1.246a16.485,16.485,0,0,0-6.591-1.76c-3.621-.145-11.35-2.412-11.494-3.151s1.9-11.495,1.028-12.313c0,0,10.249.42,11.27,1.166s2.492.21,3.621,0,4.462-3.143,11.125-.579c0,0,2.274.217,3.151-.369a3.173,3.173,0,0,1,2.289-.145,6.38,6.38,0,0,0,1.594-.8c.217-.29,1.977,0,1.977,0a.775.775,0,0,0,1.094-.514,4.837,4.837,0,0,1,1.028-1.608s1.977-11.132,5.708-15.3a2.383,2.383,0,0,0,.811-2.122C963.76,723.172,970.134,706.477,978.919,708.824Z" transform="translate(-293.052 -233.365)"/>
    <path id="Path_121" data-name="Path 121" class="cls-13" d="M928.56,809.073l9.677,11.7.058-.065c.072-.224,1.021-2.716.8-2.861s-1.9-3.81-5.273-5.345a9.937,9.937,0,0,1-4.136-3.766Z" transform="translate(-295.58 -260.974)"/>
    <path id="Path_122" data-name="Path 122" class="cls-13" d="M928.67,832.239l1.057.608,4.889-3.947c2.412-1.956,4.809-3.926,4.845-4.034.072-.217,1.028-2.709.8-2.854-.109-.08-.616-1.086-1.543-2.267-6.519-1.833-2.376,2.716-1.825,2.9,0,0-7.967-1.833-8.416,6.859A10.32,10.32,0,0,0,928.67,832.239Z" transform="translate(-295.552 -263.889)"/>
    <path id="Path_123" data-name="Path 123" class="cls-12" d="M937.011,835.925l1.391.8,14.131.362a28.629,28.629,0,0,0,5,2.412,4.335,4.335,0,0,0,.724.152,31.347,31.347,0,0,0,3.94.072c1.079,0,1.919-.072,1.919-.072s-.673-17.818-1.173-19.694c-.246-.9-1.449-.724-2.593-.254a17.275,17.275,0,0,0-2.535,1.282s-6,.579-6.953,1.1-3.665-.3-5.345,0-4.686-1.985-4.686-1.985c-8.2-2.709-3.622,2.347-3.006,2.564,0,0-7.967-1.833-8.416,6.859S937.011,835.925,937.011,835.925Z" transform="translate(-295.81 -263.889)"/>
    <path id="Path_124" data-name="Path 124" class="cls-17" d="M968.109,829.042c.159,3.694,3.035,8.271,4.751,10.691,1.079,0,1.919-.072,1.919-.072s-.674-17.818-1.173-19.694c-.246-.9-1.449-.724-2.593-.253C969.594,822.371,968.029,826.072,968.109,829.042Z" transform="translate(-306.483 -263.893)"/>
    <path id="Path_125" data-name="Path 125" class="cls-13" d="M968.109,829.042c.159,3.694,3.035,8.271,4.751,10.691,1.079,0,1.919-.072,1.919-.072s-.674-17.818-1.173-19.694c-.246-.9-1.449-.724-2.593-.253C969.594,822.371,968.029,826.072,968.109,829.042Z" transform="translate(-306.483 -263.893)"/>
    <path id="Path_126" data-name="Path 126" class="cls-11" d="M964.689,829.534c.971,3.564.963,7.554,2.513,9.974a4.348,4.348,0,0,0,.724.152,31.277,31.277,0,0,0,3.94.072c1.079,0,1.919-.072,1.919-.072s-.674-17.818-1.173-19.694c-.246-.9-1.449-.724-2.593-.253a17.294,17.294,0,0,0-2.535,1.282S963.443,824.971,964.689,829.534Z" transform="translate(-305.475 -263.893)"/>
    <path id="Path_127" data-name="Path 127" class="cls-13" d="M897.47,783.54s7.018,2.281,12.965,10.379Z" transform="translate(-287.008 -254.027)"/>
    <g id="Group_12" data-name="Group 12" class="cls-18" transform="translate(627.638 436.659)">
      <path id="Path_128" data-name="Path 128" d="M976.11,662.24l-.043.159a3.5,3.5,0,1,1,.044-.159Z" transform="translate(-936.248 -657.242)"/>
      <path id="Path_129" data-name="Path 129" d="M921.333,656.789a6.8,6.8,0,0,1,.543-1.449,1.942,1.942,0,0,1-.1.377,10.465,10.465,0,0,0,.326,4.86,3.361,3.361,0,0,0,1.181,2.173c1.086.724,2.774.094,3.665,1.036.565.594.594,1.659,1.333,2.028a1.506,1.506,0,0,0,.876.1c1.941-.275,3.071-2.477,4.94-3.078a4.925,4.925,0,0,1,3.274.283,2.492,2.492,0,0,1,1.087.724c.623.811.188,2,.478,2.984.4,1.354,2.021,1.9,3.426,2.071s2.991.282,3.933,1.34a3.621,3.621,0,0,1,.724,2.832,2.173,2.173,0,0,0,0,1.05c.384,1.1,2.282.934,2.781.065.362-.63.254-1.152,1.108-1.325a3.557,3.557,0,0,1,1.789.311,13.3,13.3,0,0,0,4.73.724,6.359,6.359,0,0,0,3.716-1.13,4.208,4.208,0,0,0,1.137-1.383,4.657,4.657,0,0,1-1.579,2.484,6.3,6.3,0,0,1-3.708,1.123,13.125,13.125,0,0,1-4.73-.724,3.751,3.751,0,0,0-1.8-.311c-.855.181-.724.724-1.108,1.333-.493.869-2.39,1.028-2.781-.065a2.341,2.341,0,0,1,0-1.05,3.542,3.542,0,0,0-.724-2.832c-.934-1.065-2.521-1.166-3.926-1.34s-3.027-.724-3.433-2.079c-.29-.978.152-2.173-.478-2.977a2.346,2.346,0,0,0-1.079-.724,4.947,4.947,0,0,0-3.281-.282c-1.869.6-3,2.8-4.94,3.078a1.572,1.572,0,0,1-.876-.1c-.724-.369-.768-1.449-1.333-2.035-.891-.942-2.571-.333-3.665-1.029a3.361,3.361,0,0,1-1.181-2.173A10.526,10.526,0,0,1,921.333,656.789Z" transform="translate(-921.185 -655.34)"/>
    </g>
    <path id="Path_130" data-name="Path 130" class="cls-13" d="M975.559,736.914c-1.347,1.811-2.9,3.484-4.063,5.4a10.256,10.256,0,0,0-1.782,6.388c1.231-1.26,1.8-3,2.571-4.578,1.311-2.68,3.266-4.947,4.925-7.41.311-.471,2.332-3.187,1.311-3.31C977.673,733.3,976.015,736.3,975.559,736.914Z" transform="translate(-306.921 -240.204)"/>
    <path id="Path_131" data-name="Path 131" class="cls-19" d="M317.654,397.741H257.733a2,2,0,1,0,0,3.991h59.921a2,2,0,1,0,0-3.991Zm0,6.845H257.733a2,2,0,1,0,0,4h59.921a2,2,0,1,0,0-4Zm-3.006-46.2h-53.9a5.019,5.019,0,0,0-5.012,5v25.35a5.019,5.019,0,0,0,5.012,5h53.9a5.019,5.019,0,0,0,5-5v-25.35A5.019,5.019,0,0,0,314.648,358.39Zm-47.217,30.819H262.3a2,2,0,1,1,0-4h5.135a2,2,0,0,1,0,4Zm0-22.258H262.3a2,2,0,1,1,0-4h5.135a2,2,0,0,1,0,4Zm20.28,20.541a11.422,11.422,0,1,0-.014,0Zm25.4,1.717h-5.135a2,2,0,1,1,0-4h5.135a2,2,0,0,1,0,4Zm0-22.258h-5.135a2,2,0,1,1,0-4h5.135a2,2,0,0,1,0,4Z" transform="translate(-110.044 -136.81)"/>
    <circle id="Ellipse_21" data-name="Ellipse 21" class="cls-19" cx="7.562" cy="7.562" r="7.562" transform="translate(170.092 231.981)"/>
    <rect id="Rectangle_19" data-name="Rectangle 19" class="cls-20" width="272.11" height="151.073" transform="translate(292.2 171.133)"/>
    <rect id="Rectangle_20" data-name="Rectangle 20" class="cls-20" width="272.11" height="151.073" transform="translate(292.2 356.002)"/>
    <rect id="Rectangle_21" data-name="Rectangle 21" class="cls-19" width="8.235" height="27.596" transform="translate(345.711 276.329)"/>
    <rect id="Rectangle_22" data-name="Rectangle 22" class="cls-19" width="8.235" height="61.76" transform="translate(361.392 242.165)"/>
    <rect id="Rectangle_23" data-name="Rectangle 23" class="cls-21" width="8.235" height="92.543" transform="translate(377.08 211.382)"/>
    <rect id="Rectangle_24" data-name="Rectangle 24" class="cls-19" width="8.235" height="114.503" transform="translate(392.768 189.422)"/>
    <rect id="Rectangle_25" data-name="Rectangle 25" class="cls-1" width="8.235" height="114.503" transform="translate(377.08 189.422)"/>
    <rect id="Rectangle_26" data-name="Rectangle 26" class="cls-1" width="8.235" height="62.941" transform="translate(408.449 240.984)"/>
    <rect id="Rectangle_27" data-name="Rectangle 27" class="cls-20" width="8.235" height="79.209" transform="translate(424.138 224.716)"/>
    <rect id="Rectangle_28" data-name="Rectangle 28" class="cls-1" width="8.235" height="103.914" transform="translate(439.819 200.011)"/>
    <rect id="Rectangle_29" data-name="Rectangle 29" class="cls-20" width="8.235" height="46.275" transform="translate(455.507 257.65)"/>
    <rect id="Rectangle_30" data-name="Rectangle 30" class="cls-1" width="8.235" height="67.642" transform="translate(471.195 236.283)"/>
    <rect id="Rectangle_31" data-name="Rectangle 31" class="cls-20" width="8.235" height="92.543" transform="translate(486.876 211.382)"/>
    <rect id="Rectangle_32" data-name="Rectangle 32" class="cls-1" width="8.235" height="92.543" transform="translate(502.564 211.382)"/>
    <path id="Path_132" data-name="Path 132" class="cls-19" d="M319.669,621.313a4.578,4.578,0,0,0-4.563-4.563H260.342a4.585,4.585,0,0,0-4.57,4.563v6.852h63.9ZM255.75,657.839a4.585,4.585,0,0,0,4.57,4.57h54.786a4.577,4.577,0,0,0,4.563-4.57v-22.8h-63.9Zm20.28-6.845h23.4a2,2,0,1,1,0,3.991h-23.4a2,2,0,0,1,0-3.991Zm-10.27,0h1.709a2,2,0,1,1,0,3.991H265.76a2,2,0,1,1,0-3.991Z" transform="translate(-110.081 -208.041)"/>
    <rect id="Rectangle_33" data-name="Rectangle 33" class="cls-19" width="8.235" height="27.596" transform="translate(345.711 461.191)"/>
    <rect id="Rectangle_34" data-name="Rectangle 34" class="cls-19" width="8.235" height="61.76" transform="translate(361.392 427.026)"/>
    <rect id="Rectangle_35" data-name="Rectangle 35" class="cls-21" width="8.235" height="92.543" transform="translate(377.08 396.243)"/>
    <rect id="Rectangle_36" data-name="Rectangle 36" class="cls-19" width="8.235" height="114.503" transform="translate(392.768 374.283)"/>
    <rect id="Rectangle_37" data-name="Rectangle 37" class="cls-1" width="8.235" height="114.503" transform="translate(377.08 374.283)"/>
    <rect id="Rectangle_38" data-name="Rectangle 38" class="cls-1" width="8.235" height="62.941" transform="translate(408.449 425.845)"/>
    <rect id="Rectangle_39" data-name="Rectangle 39" class="cls-19" width="8.235" height="79.209" transform="translate(424.138 409.578)"/>
    <rect id="Rectangle_40" data-name="Rectangle 40" class="cls-19" width="8.235" height="103.914" transform="translate(439.819 384.872)"/>
    <rect id="Rectangle_41" data-name="Rectangle 41" class="cls-20" width="8.235" height="46.275" transform="translate(455.507 442.511)"/>
    <rect id="Rectangle_42" data-name="Rectangle 42" class="cls-20" width="8.235" height="67.642" transform="translate(471.195 421.145)"/>
    <rect id="Rectangle_43" data-name="Rectangle 43" class="cls-20" width="8.235" height="92.543" transform="translate(486.876 396.243)"/>
    <rect id="Rectangle_44" data-name="Rectangle 44" class="cls-20" width="8.235" height="92.543" transform="translate(502.564 396.243)"/>
  </g>
</svg>
